<svg xmlns="http://www.w3.org/2000/svg" xmlns:xlink="http://www.w3.org/1999/xlink" 
style="isolation:isolate" viewBox="0 0 108 35" width="108" height="35"><defs><clipPath id="_clipPath_ExHkZ7m05wbfhYE9fUdYTnbeAY4xahIR"><rect width="108" height="35"/></clipPath><clipPath id="a2da04221f"><path d="M 161 80.496094 L 242.261719 80.496094 L 242.261719 105 L 161 105 Z M 161 80.496094 " clip-rule="nonzero"/></clipPath><clipPath id="233a1e7631"><path d="M 138.761719 103 L 233 103 L 233 203.496094 L 138.761719 203.496094 Z M 138.761719 103 " clip-rule="nonzero"/></clipPath></defs><path fill="#ffffff" d="M 185.632812 116.949219 L 182.296875 120.285156 L 185.632812 123.621094 L 188.972656 120.285156 L 185.632812 116.949219 " fill-opacity="1" fill-rule="nonzero"/><path fill="#ffffff" d="M 208.992188 146.980469 L 212.328125 143.644531 L 208.992188 140.308594 L 205.65625 143.644531 L 208.992188 146.980469 " fill-opacity="1" fill-rule="nonzero"/><path fill="#ffffff" d="M 162.277344 140.308594 L 158.941406 143.644531 L 162.277344 146.980469 L 165.613281 143.644531 L 162.277344 140.308594 " fill-opacity="1" fill-rule="nonzero"/><g clip-path="url(#de6f625ef8)"><path fill="#ffffff" d="M 143.164062 92.378906 C 143.164062 88.472656 146.339844 85.296875 150.242188 85.296875 C 154.144531 85.296875 157.320312 88.472656 157.320312 92.378906 C 157.320312 96.28125 154.144531 99.457031 150.242188 99.457031 C 146.339844 99.457031 143.164062 96.28125 143.164062 92.378906 Z M 162.039062 92.378906 C 162.039062 85.871094 156.746094 80.578125 150.242188 80.578125 C 143.738281 80.578125 138.445312 85.871094 138.445312 92.378906 C 138.445312 98.882812 143.738281 104.175781 150.242188 104.175781 C 156.746094 104.175781 162.039062 98.882812 162.039062 92.378906 " fill-opacity="1" fill-rule="nonzero"/></g><path fill="#ffffff" d="M 152.601562 92.378906 C 152.601562 91.078125 151.542969 90.019531 150.242188 90.019531 C 148.941406 90.019531 147.882812 91.078125 147.882812 92.378906 C 147.882812 93.679688 148.941406 94.738281 150.242188 94.738281 C 151.542969 94.738281 152.601562 93.679688 152.601562 92.378906 " fill-opacity="1" fill-rule="nonzero"/><g clip-path="url(#a2da04221f)"><path fill="#ffffff" d="M 161.785156 104.175781 L 230.464844 104.175781 C 236.96875 104.175781 242.261719 98.882812 242.261719 92.378906 C 242.261719 85.871094 236.96875 80.578125 230.464844 80.578125 L 161.785156 80.578125 C 164.851562 83.578125 166.757812 87.757812 166.757812 92.378906 C 166.757812 96.996094 164.851562 101.175781 161.785156 104.175781 " fill-opacity="1" fill-rule="nonzero"/></g><path fill="#ffffff" d="M 157.320312 172.597656 L 157.320312 167.878906 L 162.039062 167.878906 L 162.039062 172.597656 Z M 177.292969 165.332031 L 182.296875 160.328125 L 168.953125 146.980469 L 163.945312 151.984375 C 163.503906 152.429688 162.902344 152.675781 162.277344 152.675781 C 161.652344 152.675781 161.050781 152.429688 160.609375 151.984375 L 153.933594 145.3125 C 153.492188 144.871094 153.242188 144.269531 153.242188 143.644531 C 153.242188 143.015625 153.492188 142.417969 153.933594 141.972656 L 160.609375 135.300781 C 161.53125 134.378906 163.023438 134.378906 163.945312 135.300781 L 168.953125 140.308594 L 182.296875 126.960938 L 177.292969 121.953125 C 176.851562 121.511719 176.601562 120.910156 176.601562 120.285156 C 176.601562 119.660156 176.851562 119.058594 177.292969 118.617188 L 183.964844 111.945312 C 184.886719 111.023438 186.382812 111.023438 187.304688 111.945312 L 193.976562 118.617188 C 194.417969 119.058594 194.667969 119.660156 194.667969 120.285156 C 194.667969 120.910156 194.417969 121.511719 193.976562 121.953125 L 188.972656 126.960938 L 202.316406 140.308594 L 207.324219 135.300781 C 208.246094 134.378906 209.738281 134.378906 210.660156 135.300781 L 217.335938 141.972656 C 217.777344 142.417969 218.023438 143.015625 218.023438 143.644531 C 218.023438 144.269531 217.777344 144.871094 217.335938 145.3125 L 210.660156 151.984375 C 210.21875 152.429688 209.617188 152.675781 208.992188 152.675781 C 208.367188 152.675781 207.765625 152.429688 207.324219 151.984375 L 202.316406 146.980469 L 188.972656 160.328125 L 193.976562 165.332031 C 194.417969 165.773438 194.667969 166.375 194.667969 167 C 194.667969 167.625 194.417969 168.226562 193.976562 168.667969 L 187.304688 175.34375 C 186.382812 176.265625 184.886719 176.265625 183.964844 175.34375 L 177.292969 168.667969 C 176.851562 168.226562 176.601562 167.625 176.601562 167 C 176.601562 166.375 176.851562 165.773438 177.292969 165.332031 Z M 166.757812 163.160156 L 166.757812 158.441406 L 171.476562 158.441406 L 171.476562 163.160156 Z M 166.757812 127.769531 L 166.757812 123.050781 L 171.476562 123.050781 L 171.476562 127.769531 Z M 157.320312 118.332031 L 157.320312 113.613281 L 162.039062 113.613281 L 162.039062 118.332031 Z M 213.949219 113.613281 L 213.949219 118.332031 L 209.230469 118.332031 L 209.230469 113.613281 Z M 204.511719 123.050781 L 204.511719 127.769531 L 199.792969 127.769531 L 199.792969 123.050781 Z M 204.511719 158.441406 L 204.511719 163.160156 L 199.792969 163.160156 L 199.792969 158.441406 Z M 213.949219 165.519531 L 213.949219 170.238281 L 209.230469 170.238281 L 209.230469 165.519531 Z M 159.484375 182.035156 L 211.785156 182.035156 C 212.78125 176.117188 217.464844 171.433594 223.386719 170.4375 L 223.386719 108.894531 L 150.242188 108.894531 C 149.441406 108.894531 148.652344 108.832031 147.882812 108.722656 L 147.882812 170.4375 C 153.800781 171.433594 158.488281 176.117188 159.484375 182.035156 " fill-opacity="1" fill-rule="nonzero"/><path fill="#ffffff" d="M 188.972656 167 L 185.632812 163.664062 L 182.296875 167 L 185.632812 170.335938 L 188.972656 167 " fill-opacity="1" fill-rule="nonzero"/><path fill="#ffffff" d="M 182.296875 143.644531 L 185.632812 140.308594 L 188.972656 143.644531 L 185.632812 146.980469 Z M 185.632812 130.296875 L 172.289062 143.644531 L 185.632812 156.992188 L 198.980469 143.644531 L 185.632812 130.296875 " fill-opacity="1" fill-rule="nonzero"/><g clip-path="url(#233a1e7631)"><path fill="#ffffff" d="M 213.359375 195.757812 C 212.289062 196.503906 211.589844 197.742188 211.589844 199.144531 C 211.589844 201.421875 213.4375 203.273438 215.71875 203.273438 C 217.996094 203.273438 219.847656 201.421875 219.847656 199.144531 C 219.847656 197.742188 219.144531 196.503906 218.078125 195.757812 L 218.078125 191.472656 L 225.746094 191.472656 L 225.746094 195.757812 C 224.675781 196.503906 223.976562 197.742188 223.976562 199.144531 C 223.976562 201.421875 225.824219 203.273438 228.105469 203.273438 C 230.386719 203.273438 232.234375 201.421875 232.234375 199.144531 C 232.234375 197.742188 231.535156 196.503906 230.464844 195.757812 L 230.464844 191.472656 L 232.824219 191.472656 L 232.824219 108.722656 C 232.054688 108.832031 231.265625 108.894531 230.464844 108.894531 L 228.105469 108.894531 L 228.105469 172.597656 C 228.105469 173.902344 227.046875 174.957031 225.746094 174.957031 C 220.542969 174.957031 216.308594 179.191406 216.308594 184.394531 C 216.308594 185.699219 215.25 186.753906 213.949219 186.753906 L 157.320312 186.753906 C 156.019531 186.753906 154.960938 185.699219 154.960938 184.394531 C 154.960938 179.191406 150.726562 174.957031 145.523438 174.957031 C 144.21875 174.957031 143.164062 173.902344 143.164062 172.597656 L 143.164062 107.296875 C 141.394531 106.453125 139.800781 105.304688 138.445312 103.921875 L 138.445312 191.472656 L 140.804688 191.472656 L 140.804688 195.757812 C 139.734375 196.503906 139.035156 197.742188 139.035156 199.144531 C 139.035156 201.421875 140.882812 203.273438 143.164062 203.273438 C 145.445312 203.273438 147.292969 201.421875 147.292969 199.144531 C 147.292969 197.742188 146.59375 196.503906 145.523438 195.757812 L 145.523438 191.472656 L 152.601562 191.472656 L 152.601562 195.757812 C 151.53125 196.503906 150.832031 197.742188 150.832031 199.144531 C 150.832031 201.421875 152.679688 203.273438 154.960938 203.273438 C 157.242188 203.273438 159.089844 201.421875 159.089844 199.144531 C 159.089844 197.742188 158.390625 196.503906 157.320312 195.757812 L 157.320312 191.472656 L 164.398438 191.472656 L 164.398438 195.757812 C 163.332031 196.503906 162.628906 197.742188 162.628906 199.144531 C 162.628906 201.421875 164.480469 203.273438 166.757812 203.273438 C 169.039062 203.273438 170.886719 201.421875 170.886719 199.144531 C 170.886719 197.742188 170.1875 196.503906 169.117188 195.757812 L 169.117188 191.472656 L 176.785156 191.472656 L 176.785156 195.757812 C 175.71875 196.503906 175.015625 197.742188 175.015625 199.144531 C 175.015625 201.421875 176.867188 203.273438 179.144531 203.273438 C 181.425781 203.273438 183.273438 201.421875 183.273438 199.144531 C 183.273438 197.742188 182.574219 196.503906 181.503906 195.757812 L 181.503906 191.472656 L 189.761719 191.472656 L 189.761719 195.757812 C 188.695312 196.503906 187.992188 197.742188 187.992188 199.144531 C 187.992188 201.421875 189.84375 203.273438 192.121094 203.273438 C 194.402344 203.273438 196.253906 201.421875 196.253906 199.144531 C 196.253906 197.742188 195.550781 196.503906 194.484375 195.757812 L 194.484375 191.472656 L 201.5625 191.472656 L 201.5625 195.757812 C 200.492188 196.503906 199.792969 197.742188 199.792969 199.144531 C 199.792969 201.421875 201.640625 203.273438 203.921875 203.273438 C 206.199219 203.273438 208.050781 201.421875 208.050781 199.144531 C 208.050781 197.742188 207.347656 196.503906 206.28125 195.757812 L 206.28125 191.472656 L 213.359375 191.472656 L 213.359375 195.757812 " fill-opacity="1" fill-rule="nonzero"/></g><g fill="#ffffff" fill-opacity="1"><g transform="translate(118.738649, 242.354516)"><g><path d="M 30.21875 0.03125 L 36.203125 0.03125 C 36.203125 0.03125 34.515625 -0.78125 34.515625 -3.03125 L 34.515625 -23.765625 L 28.421875 -23.765625 L 19.921875 -2.484375 L 17.265625 -2.484375 L 8.765625 -23.765625 L 2.6875 -23.765625 L 2.6875 -3.03125 C 2.6875 -1.15625 1.015625 0.03125 1.015625 0.03125 L 6.96875 0.03125 C 6.96875 0.03125 5.296875 -1.015625 5.296875 -3.03125 L 5.296875 -21.28125 L 7 -21.28125 L 15.5 0.03125 L 21.6875 0 L 30.1875 -21.28125 L 31.890625 -21.28125 L 31.890625 -3.03125 C 31.890625 -0.890625 30.21875 0.03125 30.21875 0.03125 Z M 30.21875 0.03125 "/></g></g></g><g fill="#ffffff" fill-opacity="1"><g transform="translate(155.998378, 242.354516)"><g><path d="M 20.328125 -3.03125 L 20.328125 -9.015625 C 20.328125 -12.234375 18.9375 -14.546875 17.203125 -16.078125 C 15.5 -17.640625 13.390625 -18.359375 10.46875 -18.359375 C 3.53125 -18.359375 2.515625 -12.4375 2.515625 -12.4375 L 3.609375 -11.734375 C 5.03125 -14.28125 6.296875 -15.875 10.46875 -15.875 C 14.890625 -15.875 17.71875 -13.328125 17.71875 -9.015625 L 17.71875 -8.765625 C 16.25 -9.1875 11.328125 -10.296875 7.203125 -10.296875 C 3.84375 -10.296875 1.015625 -8.9375 1.015625 -5.921875 C 1.015625 -1.390625 6.296875 0.34375 10.46875 0.34375 C 13.53125 0.34375 15.984375 -1.046875 17.71875 -3.296875 L 17.984375 0.03125 L 22.609375 0.03125 C 22.609375 0.03125 20.328125 -0.984375 20.328125 -3.03125 Z M 10.46875 -2.140625 C 6.796875 -2.140625 3.609375 -3.234375 3.609375 -5.609375 C 3.609375 -10.0625 14.859375 -7.984375 17.546875 -7.484375 C 17.03125 -4.96875 14.484375 -2.140625 10.46875 -2.140625 Z M 10.46875 -2.140625 "/></g></g></g><g fill="#ffffff" fill-opacity="1"><g transform="translate(179.115727, 242.354516)"><g><path d="M 8.8125 -25.9375 C 5.546875 -25.9375 2.890625 -23.296875 2.890625 -20.03125 L 2.890625 -18.015625 L 0.84375 -15.875 L 2.890625 -15.875 L 2.890625 -3.03125 C 2.890625 -0.984375 1.1875 0 1.1875 0 L 7.171875 0 C 7.171875 0 5.515625 -0.984375 5.515625 -3.03125 L 5.515625 -15.875 L 11.484375 -15.875 L 11.484375 -18.015625 L 5.515625 -18.015625 L 5.515625 -20.234375 C 5.515625 -22.375 6.90625 -23.453125 9.015625 -23.453125 L 11.078125 -23.453125 C 12.515625 -23.453125 13.1875 -22.515625 13.59375 -21.1875 L 13.59375 -25.9375 Z M 8.8125 -25.9375 "/></g></g></g><g fill="#ffffff" fill-opacity="1"><g transform="translate(191.014366, 242.354516)"><g><path d="M 20.328125 -3.03125 L 20.328125 -9.015625 C 20.328125 -12.234375 18.9375 -14.546875 17.203125 -16.078125 C 15.5 -17.640625 13.390625 -18.359375 10.46875 -18.359375 C 3.53125 -18.359375 2.515625 -12.4375 2.515625 -12.4375 L 3.609375 -11.734375 C 5.03125 -14.28125 6.296875 -15.875 10.46875 -15.875 C 14.890625 -15.875 17.71875 -13.328125 17.71875 -9.015625 L 17.71875 -8.765625 C 16.25 -9.1875 11.328125 -10.296875 7.203125 -10.296875 C 3.84375 -10.296875 1.015625 -8.9375 1.015625 -5.921875 C 1.015625 -1.390625 6.296875 0.34375 10.46875 0.34375 C 13.53125 0.34375 15.984375 -1.046875 17.71875 -3.296875 L 17.984375 0.03125 L 22.609375 0.03125 C 22.609375 0.03125 20.328125 -0.984375 20.328125 -3.03125 Z M 10.46875 -2.140625 C 6.796875 -2.140625 3.609375 -3.234375 3.609375 -5.609375 C 3.609375 -10.0625 14.859375 -7.984375 17.546875 -7.484375 C 17.03125 -4.96875 14.484375 -2.140625 10.46875 -2.140625 Z M 10.46875 -2.140625 "/></g></g></g><g fill="#ffffff" fill-opacity="1"><g transform="translate(214.131716, 242.354516)"><g><path d="M 14.65625 -2.484375 L 4.484375 -2.484375 L 16.96875 -15.53125 L 16.96875 -18.015625 L 2.984375 -18.015625 L 2.046875 -11.828125 C 2.046875 -11.828125 4.21875 -15.53125 5.40625 -15.53125 L 13.46875 -15.53125 L 0.953125 -2.484375 L 0.953125 0.03125 L 17.03125 0.03125 L 17.984375 -6.09375 C 17.984375 -6.09375 15.875 -2.484375 14.65625 -2.484375 Z M 14.65625 -2.484375 "/></g></g></g><g fill="#ffffff" fill-opacity="1"><g transform="translate(233.135534, 242.354516)"><g><path d="M 20.328125 -3.03125 L 20.328125 -9.015625 C 20.328125 -12.234375 18.9375 -14.546875 17.203125 -16.078125 C 15.5 -17.640625 13.390625 -18.359375 10.46875 -18.359375 C 3.53125 -18.359375 2.515625 -12.4375 2.515625 -12.4375 L 3.609375 -11.734375 C 5.03125 -14.28125 6.296875 -15.875 10.46875 -15.875 C 14.890625 -15.875 17.71875 -13.328125 17.71875 -9.015625 L 17.71875 -8.765625 C 16.25 -9.1875 11.328125 -10.296875 7.203125 -10.296875 C 3.84375 -10.296875 1.015625 -8.9375 1.015625 -5.921875 C 1.015625 -1.390625 6.296875 0.34375 10.46875 0.34375 C 13.53125 0.34375 15.984375 -1.046875 17.71875 -3.296875 L 17.984375 0.03125 L 22.609375 0.03125 C 22.609375 0.03125 20.328125 -0.984375 20.328125 -3.03125 Z M 10.46875 -2.140625 C 6.796875 -2.140625 3.609375 -3.234375 3.609375 -5.609375 C 3.609375 -10.0625 14.859375 -7.984375 17.546875 -7.484375 C 17.03125 -4.96875 14.484375 -2.140625 10.46875 -2.140625 Z M 10.46875 -2.140625 "/></g></g></g><g fill="#ffffff" fill-opacity="1"><g transform="translate(110.359743, 276.104514)"><g><path d="M 18.296875 -2.484375 L 7.71875 -2.484375 C 6.421875 -2.484375 5.375 -3.53125 5.375 -4.828125 L 5.375 -23.796875 L 1.09375 -23.796875 C 1.09375 -23.796875 2.75 -22.75 2.75 -20.734375 L 2.75 -3.03125 C 2.75 -1.296875 1.09375 0.03125 1.09375 0.03125 L 20.90625 0 L 20.984375 0 L 22.09375 -7 C 22.09375 -7 19.484375 -2.484375 18.296875 -2.484375 Z M 18.296875 -2.484375 "/></g></g></g><g fill="#ffffff" fill-opacity="1"><g transform="translate(132.967156, 276.104514)"><g><path d="M 20.328125 -3.03125 L 20.328125 -9.015625 C 20.328125 -12.234375 18.9375 -14.546875 17.203125 -16.078125 C 15.5 -17.640625 13.390625 -18.359375 10.46875 -18.359375 C 3.53125 -18.359375 2.515625 -12.4375 2.515625 -12.4375 L 3.609375 -11.734375 C 5.03125 -14.28125 6.296875 -15.875 10.46875 -15.875 C 14.890625 -15.875 17.71875 -13.328125 17.71875 -9.015625 L 17.71875 -8.765625 C 16.25 -9.1875 11.328125 -10.296875 7.203125 -10.296875 C 3.84375 -10.296875 1.015625 -8.9375 1.015625 -5.921875 C 1.015625 -1.390625 6.296875 0.34375 10.46875 0.34375 C 13.53125 0.34375 15.984375 -1.046875 17.71875 -3.296875 L 17.984375 0.03125 L 22.609375 0.03125 C 22.609375 0.03125 20.328125 -0.984375 20.328125 -3.03125 Z M 10.46875 -2.140625 C 6.796875 -2.140625 3.609375 -3.234375 3.609375 -5.609375 C 3.609375 -10.0625 14.859375 -7.984375 17.546875 -7.484375 C 17.03125 -4.96875 14.484375 -2.140625 10.46875 -2.140625 Z M 10.46875 -2.140625 "/></g></g></g><g fill="#ffffff" fill-opacity="1"><g transform="translate(156.084505, 276.104514)"><g><path d="M 18.875 -3.0625 L 18.875 -14.953125 C 18.875 -17.03125 20.5625 -18.015625 20.5625 -18.015625 L 14.59375 -18.015625 C 14.59375 -18.015625 16.28125 -17.03125 16.28125 -14.953125 L 16.25 -8.734375 C 16.25 -5.171875 13.59375 -2.140625 9.140625 -2.140625 C 5.953125 -2.140625 4.890625 -5.0625 4.890625 -8.5 L 4.890625 -14.953125 C 4.890625 -17.03125 6.59375 -18.015625 6.59375 -18.015625 L 0.640625 -18.015625 C 0.640625 -18.015625 2.3125 -17.03125 2.3125 -14.953125 L 2.3125 -8.84375 C 2.34375 -3.734375 4.1875 0.375 9.140625 0.375 C 12.375 0.375 14.828125 -1.625 16.25 -4.5625 L 16.25 0 L 20.5625 0 C 20.5625 0 18.875 -1.015625 18.875 -3.0625 Z M 18.875 -3.0625 "/></g></g></g><g fill="#ffffff" fill-opacity="1"><g transform="translate(177.570043, 276.104514)"><g><path d="M 14.890625 0 L 20.875 0 C 20.875 0 19.171875 -0.984375 19.171875 -3.03125 L 19.171875 -9.1875 C 19.140625 -14.28125 17.3125 -18.359375 12.34375 -18.359375 C 9.109375 -18.359375 6.65625 -16.390625 5.234375 -13.4375 L 5.234375 -18.015625 L 0.953125 -18.015625 C 0.953125 -18.015625 2.625 -17 2.625 -14.953125 L 2.625 -3.03125 C 2.625 -0.984375 0.953125 0 0.953125 0 L 6.90625 0 C 6.90625 0 5.203125 -0.984375 5.203125 -3.03125 L 5.234375 -9.25 C 5.234375 -12.8125 7.890625 -15.875 12.34375 -15.875 C 15.53125 -15.875 16.59375 -12.953125 16.59375 -9.515625 L 16.59375 -3.03125 C 16.59375 -0.984375 14.890625 0 14.890625 0 Z M 14.890625 0 "/></g></g></g><g fill="#ffffff" fill-opacity="1"><g transform="translate(199.225559, 276.104514)"><g><path d="M 15.46875 0 L 21.453125 0.03125 C 21.453125 0.03125 19.75 -0.984375 19.75 -3.03125 L 19.75 -25.9375 L 15.46875 -25.9375 C 15.46875 -25.9375 17.140625 -24.921875 17.171875 -22.875 C 17.171875 -20.4375 17.171875 -16.859375 17.171875 -13.390625 C 15.734375 -16.359375 13.21875 -18.359375 9.96875 -18.359375 C 5.265625 -18.359375 1.1875 -14.171875 1.1875 -9.015625 C 1.1875 -3.84375 5.265625 0.375 9.96875 0.375 C 13.21875 0.375 15.734375 -1.671875 17.171875 -4.59375 C 17.171875 -3.609375 17.171875 -3.03125 17.171875 -3.03125 C 17.171875 -0.984375 15.46875 0 15.46875 0 Z M 9.96875 -2.140625 C 6.828125 -2.140625 3.78125 -5.296875 3.78125 -9.015625 C 3.78125 -12.578125 6.703125 -15.875 9.96875 -15.875 C 14.796875 -15.875 17.171875 -12.78125 17.171875 -9.015625 C 17.171875 -5.515625 14.828125 -2.140625 9.96875 -2.140625 Z M 9.96875 -2.140625 "/></g></g></g><g fill="#ffffff" fill-opacity="1"><g transform="translate(221.594991, 276.104514)"><g><path d="M 12.40625 -18.359375 C 9.1875 -18.359375 6.703125 -16.390625 5.234375 -13.4375 L 5.265625 -18.015625 L 0.953125 -18.015625 C 0.953125 -18.015625 2.625 -17 2.625 -14.953125 L 2.625 -3.03125 C 2.625 -0.984375 0.953125 0 0.953125 0 L 6.90625 0 C 6.90625 0 5.234375 -0.984375 5.234375 -3.03125 L 5.234375 -9.25 C 5.234375 -12.921875 7.953125 -15.875 12.40625 -15.875 C 14.921875 -15.875 15.703125 -13.734375 15.703125 -10.125 L 18.328125 -9.828125 C 18.1875 -14.546875 16.53125 -18.359375 12.40625 -18.359375 Z M 12.40625 -18.359375 "/></g></g></g><g fill="#ffffff" fill-opacity="1"><g transform="translate(240.734799, 276.104514)"><g><path d="M 15.46875 -18.015625 L 16.96875 -17.40625 C 17.78125 -17.03125 18.1875 -16.078125 17.84375 -15.265625 L 12.515625 -1.875 L 11.359375 -1.875 L 6.015625 -15.265625 C 5.671875 -16.078125 6.09375 -17.03125 6.90625 -17.40625 L 8.359375 -18.015625 L 0 -18.015625 C 1.734375 -17.203125 3.09375 -15.78125 3.8125 -13.96875 L 9.34375 0 L 11.796875 0 L 10.671875 2.78125 C 9.765625 5.140625 7.515625 6.625 5 6.625 L 5 7.953125 C 8.84375 7.953125 12.3125 5.609375 13.703125 2.046875 L 14.515625 0.03125 L 14.515625 0 L 20.0625 -13.96875 C 20.78125 -15.78125 22.140625 -17.203125 23.875 -18.015625 Z M 15.46875 -18.015625 "/></g></g></g></svg>